<?xml version="1.0" encoding="utf-8"?>
<!-- Generator: Adobe Illustrator 26.2.1, SVG Export Plug-In . SVG Version: 6.00 Build 0)  -->
<svg version="1.1" id="Layer_1" xmlns="http://www.w3.org/2000/svg" xmlns:xlink="http://www.w3.org/1999/xlink" x="0px" y="0px"
	 viewBox="0 0 250.8 720.6" style="enable-background:new 0 0 250.8 720.6;" xml:space="preserve">
<style type="text/css">
	.st0{fill-rule:evenodd;clip-rule:evenodd;}
</style>
<g>
	<path d="M135.4,709.1h-19.8c-31.3,0-104-7.4-104-76.1c0-7.3,1.1-14.8,3.5-24.5c4.3-17.2,14.5-29.1,25.3-41.6
		c13.3-15.5,27.1-31.4,27.1-55.7c0-20.4-5.3-34.3-9.5-45.6c-4.1-10.7-6.5-17.1-4.5-27.1c4.6-22.3,23.9-35.7,51.6-35.7h40.7
		c27.8,0,47.1,13.4,51.7,35.7c2,9.9-0.4,16.4-4.4,27c-4.3,11.3-9.6,25.2-9.6,45.6c0,24.3,13.7,40.2,27,55.6
		c10.8,12.6,21.1,24.4,25.4,41.7c2.4,9.6,3.4,17.1,3.4,24.4C239.2,701.6,166.7,709.1,135.4,709.1 M247,605.8
		c-5-19.9-16.6-33.4-27.8-46.4c-12.5-14.4-24.2-28.1-24.2-48.1c0-18.3,4.7-30.6,8.8-41.5c4.3-11.3,7.7-20.2,5-33.4
		c-5.7-27.7-29.8-44.9-63-44.9h-13.8l-0.6-307.8h4.9c4.1,0,7.5-3.3,7.5-7.5V7.5c0-4.1-3.3-7.5-7.5-7.5h-21.7c-4.1,0-7.5,3.3-7.5,7.5
		v68.6c0,4.1,3.3,7.5,7.5,7.5h4.8l-0.5,307.8h-13.8c-33.1,0-57.2,17.2-62.9,44.9c-2.7,13.2,0.7,22.1,5,33.4
		c4.1,10.9,8.8,23.2,8.8,41.5c0,20-11.8,33.6-24.2,48.1c-11.2,13-22.8,26.5-27.8,46.4C1.2,616.3,0,624.7,0,633
		c0,81.3,88.5,87.6,115.6,87.6h19.8c27.1,0,115.3-6.5,115.3-87.6C250.8,624.7,249.6,616.3,247,605.8"/>
	<path class="st0" d="M160.2,492.3c0,19.2-15.6,34.8-34.8,34.8c-19.2,0-34.8-15.6-34.8-34.8s15.6-34.8,34.8-34.8
		C144.6,457.5,160.2,473.1,160.2,492.3"/>
</g>
</svg>
