<?xml version="1.0" encoding="utf-8"?>
<!-- Generator: Adobe Illustrator 26.2.1, SVG Export Plug-In . SVG Version: 6.00 Build 0)  -->
<svg version="1.1" id="Layer_1" xmlns="http://www.w3.org/2000/svg" xmlns:xlink="http://www.w3.org/1999/xlink" x="0px" y="0px"
	 viewBox="0 0 1171.5 1171.4" style="enable-background:new 0 0 1171.5 1171.4;" xml:space="preserve">
<path d="M1159.4,945.2c5.7-31.4,5.7-63.6,0-95c9.1-4.7,14.1-15.3,11.3-25.7c-2.7-10.1-12.5-16.9-22.7-16.5
	c-10.5-29.4-26.2-57.4-47.4-82.3c2.3-3.6,3.5-7.7,3.5-12c0-6-2.3-11.6-6.6-15.8c-7.3-7.3-19.2-8.3-27.8-3
	c-24.6-20.9-52.5-36.9-82.3-47.5c0.4-10.3-6.2-19.8-16.6-22.6c-10.1-2.7-20.8,2.4-25.6,11.2c-15.6-2.8-31.4-4.4-47.6-4.4
	s-32,1.6-47.6,4.4c-4.8-8.9-15.5-14-25.5-11.2c-10.3,2.8-17,12.3-16.6,22.6c-15.5,5.5-30.3,12.5-44.6,20.8l-467-450.9l0.1-0.1
	c-0.9-0.7-20.6-17.4-13.7-37.7l0.8-0.6l0.2-2.6c0.2-3,0.2-3.7-13.9-19l8.7-8.6c4.3,2.9,9.3,4.5,14.3,4.5c5.6,0,10.7-2,14.5-5.7
	c8.7-8.5,7.8-23.5-2-33.4c-9.4-9.6-25-10.8-33.4-2.6c-4.3,4.3-6.4,10.2-5.9,16.7c0.3,4.2,1.9,8.3,4.2,12l-8.4,8.3
	c-0.1-0.1-0.2-0.2-0.3-0.3c-17.2-18.6-40.6-44.2-54.7-63c-4.3-5.7-8.5-11.8-12.7-18.1l5.5-5.5c4.3,2.9,9.3,4.5,14.3,4.5
	c5.6,0,10.7-2,14.5-5.7c8.7-8.5,7.8-23.5-2-33.5c-9.4-9.6-25-10.8-33.4-2.6c-7.4,7.3-7.8,19.2-1.7,28.7l-3.8,3.7
	C171.5,31,158.4,6.1,158.3,5.8l-3-5.8l-5.5,3.5c-0.3,0.2-30.2,19.1-70.1,13.5l-5.1-0.7l-1.4,4.9c0,0.1-4.2,13.8-21.1,30.7
	C35,68.9,21.4,73,21.3,73.1l-5,1.4l0.7,5.2c5.6,39.8-13.3,69.8-13.5,70.1L0,155.2l5.8,3c0.3,0.2,25.2,13.2,51.1,29.5l-3.8,3.8
	c-9.4-5.8-21.7-5.5-28.7,1.6c-8.5,8.7-7.4,23.7,2.6,33.4c5.2,5.1,12,8,18.7,8c5.7,0,11-2.1,14.8-6c7.3-7.4,7.4-19.3,1.2-28.8
	l5.5-5.6c6.3,4.1,12.4,8.4,18.1,12.7c18.8,14.1,44.3,37.6,63,54.7c0.1,0.1,0.2,0.2,0.3,0.3l-8.3,8.5c-9.4-5.8-21.7-5.4-28.7,1.6
	c-4.3,4.3-6.3,10.3-5.6,16.8c0.6,6.1,3.5,12,8.2,16.6c5.2,5.1,12,8,18.7,8c5.7,0,11-2.1,14.8-6c7.3-7.4,7.4-19.3,1.2-28.8l8.6-8.7
	c15.4,14,16.1,14.1,19,13.9l2.7-0.2l0.6-0.7c20.3-6.8,36.9,12.8,37.7,13.7l0.1-0.1l450.9,467c-8.3,14.2-15.3,29.1-20.8,44.6
	c-10.2-0.4-19.9,6.5-22.6,16.5c-1.5,5.8-0.8,11.8,2.2,17c2.2,3.7,5.3,6.7,9,8.6c-2.8,15.6-4.4,31.4-4.4,47.5s1.6,32,4.4,47.5
	c-3.7,1.9-6.8,4.9-9,8.6c-3,5.2-3.8,11.2-2.2,17c2.6,9.8,11.5,16.6,21.6,16.6c0.3,0,0.6-0.1,0.9-0.1c10.7,29.9,26.6,57.8,47.5,82.4
	c-5.5,8.7-4.5,20.3,3,27.8c4.2,4.2,9.9,6.6,15.8,6.6c4.3,0,8.4-1.2,12-3.5c24.6,20.9,52.4,36.8,82.3,47.5
	c-0.4,10.3,6.2,19.8,16.6,22.6c1.9,0.5,3.8,0.8,5.8,0.8c8.4,0,15.7-4.8,19.5-12c15.6,2.8,31.6,4.4,47.8,4.4
	c16.2,0,32.2-1.6,47.8-4.4c3.8,7.2,11.2,12,19.5,12c2,0,3.9-0.2,5.8-0.8c10.3-2.8,17-12.3,16.6-22.6c12.6-4.5,24.9-9.7,36.6-16.1
	c0.1,0.2,0.1,0.4,0.3,0.6l14.9,14.9c1.1,1.1,2.6,1.7,4.2,1.7s3.1-0.6,4.2-1.7l99.8-99.8c1.1-1.1,1.7-2.6,1.7-4.2s-0.6-3.1-1.7-4.2
	l-14.9-14.9c-0.2-0.2-0.5-0.2-0.7-0.4c6.4-11.9,11.6-24.1,16.1-36.7c0.4,0,0.7,0.1,1.1,0.1c10.1,0,19-6.8,21.6-16.6
	C1173.5,960.6,1168.5,950,1159.4,945.2L1159.4,945.2z M1159.3,967.8c-1.5,5.5-7.3,8.9-12.9,7.4c-5.6-1.5-8.9-7.3-7.4-12.9
	c1.2-4.6,5.4-7.8,10.1-7.8c0.9,0,1.8,0.1,2.7,0.4C1157.4,956.4,1160.8,962.2,1159.3,967.8L1159.3,967.8z M1034.3,1125.8
	c-0.2-4.5,0.4-16.6,8.5-32.3l22.3,19.8l-21.6,21.6L1034.3,1125.8z M967.8,1159.2c-5.5,1.5-11.4-2-12.9-7.4
	c-1.5-5.6,1.8-11.4,7.4-12.9c0.9-0.2,1.8-0.4,2.7-0.4c4.7,0,8.9,3.2,10.1,7.8c0.7,2.7,0.4,5.5-1.1,8
	C972.8,1156.8,970.6,1158.5,967.8,1159.2L967.8,1159.2z M827.7,1159.2c-2.7-0.7-5-2.5-6.4-4.9c-1.4-2.4-1.8-5.3-1.1-8
	c1.2-4.6,5.4-7.8,10.1-7.8c0.9,0,1.8,0.1,2.7,0.4c5.6,1.5,8.9,7.3,7.4,12.9C839.1,1157.3,833.2,1160.7,827.7,1159.2L827.7,1159.2z
	 M706.4,1089.2c-4.1-4.1-4.1-10.8,0-14.9c2-2,4.6-3.1,7.4-3.1s5.4,1.1,7.4,3.1c2,2,3.1,4.6,3.1,7.4s-1.1,5.4-3.1,7.4
	C717.3,1093.1,710.3,1093.1,706.4,1089.2L706.4,1089.2z M636.3,967.8c-0.7-2.7-0.4-5.5,1-8c1.4-2.4,3.7-4.2,6.4-4.9
	c0.9-0.2,1.8-0.4,2.7-0.4c4.7,0,8.9,3.2,10.1,7.8c0.7,2.7,0.4,5.5-1,8c-1.4,2.4-3.7,4.2-6.4,4.9
	C643.6,976.7,637.8,973.3,636.3,967.8L636.3,967.8z M637.4,835.7c-1.4-2.4-1.8-5.3-1-8c1.2-4.6,5.4-7.8,10.1-7.8
	c0.9,0,1.8,0.1,2.7,0.4c2.7,0.7,5,2.5,6.4,4.9c1.4,2.4,1.8,5.3,1,8c-1.5,5.5-7.3,8.9-12.9,7.4C641,839.9,638.8,838.1,637.4,835.7
	L637.4,835.7z M852.7,1147.8c-0.5-9.4-6.9-17.8-16.5-20.4c-9.4-2.5-19.2,1.7-24.4,9.4c-28.3-10.2-54.8-25.2-78.1-45.1
	c1.6-3.1,2.5-6.5,2.5-10.1c0-6-2.3-11.6-6.6-15.8c-4.2-4.2-9.9-6.6-15.8-6.6c-3.6,0-7,0.9-10.1,2.5c-19.8-23.4-34.9-49.8-45.1-78.1
	c7.8-5.2,12-14.9,9.4-24.4c-2.5-9.3-11.1-15.8-20.4-16.4c-2.6-14.8-4.2-29.8-4.2-45.1c0-15.3,1.5-30.4,4.2-45.1
	c9.6-0.5,17.9-7,20.4-16.4c2.6-9.6-1.5-19.3-9.4-24.4c8-22.3,19.1-43.3,33.1-62.7l240,245l-43,43l8.4,8.4l43.2-43.2l93.3,83
	c-7.6,13.9-10.2,25.8-10.9,33.7c-12.5,7.1-25.5,13-39,17.8c-5.2-7.7-15-12-24.4-9.4c-9.6,2.6-15.9,11-16.5,20.4
	c-14.7,2.6-29.8,4.2-45.1,4.2C882.5,1152,867.5,1150.5,852.7,1147.8L852.7,1147.8z M176.7,271.4c-3.8-3.1-12.2-10.9-20.4-18.4
	c-18.8-17.3-44.6-41.1-63.9-55.5c-5.3-4-11-7.9-16.8-11.8l0.1-0.1l-8.5-8.3l-1.8,1.8c-20-12.7-39.6-23.6-48.8-28.5
	c5.5-10.8,15.9-35.9,12.7-67.9c6.2-2.7,17.8-9.1,31.1-22.3c13.2-13.2,19.6-24.8,22.3-31.1c32,3.2,57.1-7.2,67.9-12.7
	c5,9.2,15.8,28.8,28.5,48.8l-1.8,1.8l8.3,8.5l0.1-0.1c3.8,5.8,7.8,11.5,11.8,16.8c14.4,19.3,38.2,45.1,55.5,63.9
	c7.6,8.2,15.3,16.7,18.4,20.4c-6.4,20.5,5.8,37.4,13,45.2l-7,7L233,174.1c0.8-1.2,1.4-2.5,1.7-3.9c0.6-2.8,0.1-5.8-1.5-8.2
	c-3.1-4.9-10.1-6.4-15-3.3c-2.4,1.6-4.1,4-4.7,6.8c-0.6,2.8-0.1,5.8,1.5,8.2c2,3.1,5.4,5,9.1,5c1.5,0,2.9-0.4,4.2-1l44.9,55.3
	l-10.1,10.1L147.2,88.8c0.9-1.2,1.7-2.6,2-4.2c0.6-2.8,0.1-5.8-1.5-8.2c-3.1-4.9-10.1-6.4-15-3.3c-5,3.2-6.5,10-3.3,15
	c2,3.1,5.4,5,9.1,5c1.3,0,2.6-0.3,3.8-0.8l116.4,155l-11.5,11.5L92.2,142.4c1.2-3.1,1.1-6.6-0.8-9.6c-3.1-4.9-10.1-6.4-15-3.3
	c-2.4,1.6-4.1,4-4.7,6.8c-0.6,2.8-0.1,5.7,1.5,8.2c2,3.1,5.4,5,9.1,5c2.1,0,4.1-0.6,5.9-1.7c0.2-0.2,0.4-0.4,0.6-0.6l154.5,115.9
	l-10.1,10.1l-55.4-44.9c0.3-0.6,0.7-1.2,0.8-1.8c0.6-2.8,0.1-5.7-1.5-8.2c-3.1-4.9-10.2-6.4-15-3.3c-2.4,1.6-4.1,4-4.8,6.8
	c-0.6,2.8-0.1,5.7,1.5,8.2c2,3.1,5.4,5,9.1,5c2.1,0,4.1-0.6,5.9-1.7c0.1-0.1,0.2-0.2,0.3-0.3l54.8,44.4l-7,7
	C214.1,277.2,197.2,264.9,176.7,271.4L176.7,271.4z M827.7,636.3c0.9-0.2,1.8-0.4,2.7-0.4c4.7,0,8.9,3.2,10.1,7.8
	c0.7,2.7,0.4,5.5-1,8c-1.4,2.4-3.7,4.2-6.4,4.9c-5.5,1.5-11.4-2-12.9-7.4c-0.7-2.7-0.4-5.5,1.1-8C822.7,638.8,825,637,827.7,636.3
	L827.7,636.3z M830.4,668.9c2,0,3.9-0.3,5.8-0.8c9.6-2.6,15.9-11,16.5-20.4c14.7-2.6,29.8-4.2,45.1-4.2c15.3,0,30.3,1.5,45.1,4.2
	c0.5,9.4,6.9,17.8,16.5,20.4c1.9,0.5,3.9,0.8,5.8,0.8c7.7,0,14.6-4,18.7-10.1c28.3,10.2,54.7,25.2,78,45c-1.6,3.1-2.5,6.5-2.5,10.1
	c0,6,2.3,11.6,6.6,15.8c4.2,4.2,9.9,6.6,15.8,6.6c3.6,0,6.9-0.9,10-2.5c20.1,23.7,35,50.2,45,78.1c-7.8,5.2-11.8,14.9-9.3,24.4
	c2.5,9.3,10.8,15.8,20.3,16.4c5.3,29.8,5.3,60.4,0,90.3c-9.3,0.7-17.8,7.1-20.3,16.4c-2.5,9.5,1.5,19.2,9.3,24.4
	c-4.8,13.4-10.7,26.5-17.8,39.1c-7.9,0.8-19.7,3.3-33.6,10.9l-83-93.3l43.2-43.2l-8.4-8.4l-43,43l-245-240
	c19.3-14,40.4-25.1,62.6-33.1C815.8,664.9,822.8,668.9,830.4,668.9L830.4,668.9z M965.1,635.9c0.9,0,1.8,0.1,2.7,0.4
	c2.7,0.7,5,2.5,6.4,4.9c1.4,2.4,1.8,5.3,1.1,8c-1.5,5.5-7.4,8.9-12.9,7.4c-2.7-0.7-5-2.5-6.4-4.9c-1.4-2.4-1.8-5.3-1-8
	C956.2,639.1,960.4,635.9,965.1,635.9L965.1,635.9z M1089.2,706.4c2,2,3.1,4.6,3.1,7.4s-1.1,5.4-3.1,7.4c-4,4-10.9,4-14.9,0
	c-2-2-3.1-4.6-3.1-7.4s1.1-5.4,3.1-7.4c2-2,4.6-3.1,7.4-3.1C1084.6,703.3,1087.2,704.4,1089.2,706.4L1089.2,706.4z M1159.2,827.7
	c1.5,5.6-1.8,11.4-7.4,12.9c-5.5,1.5-11.4-2-12.9-7.4c-1.5-5.6,1.8-11.4,7.4-12.9c0.9-0.2,1.8-0.4,2.7-0.4
	C1153.9,819.9,1158,823.1,1159.2,827.7L1159.2,827.7z M1084,1094.4l-25-24c1.8-2,3.4-4,5.4-6c2-2,4-3.6,6-5.4l24,25L1084,1094.4z
	 M1069.3,1109.1l-23.5-20.9c2.5-4.3,5.5-8.7,9.2-13.4l24.8,23.8L1069.3,1109.1z M266.7,256.4l450,446.8c-2.3,2.2-4.8,4.1-7,6.4
	c-2.3,2.3-4.2,4.7-6.4,7.1L256.3,266.7L266.7,256.4z M718,718c2.3-2.3,4.7-4.3,7.1-6.4l245.5,243.8l-15.2,15.2L711.6,725.1
	C713.7,722.7,715.7,720.3,718,718L718,718z M978.9,963.8l83.2,86.5c-2,1.8-4,3.6-6.1,5.7c-2,2-3.9,4.1-5.7,6.1l-86.5-83.2
	L978.9,963.8z M983.1,959.6l15.1-15.1l81.9,92.2c-4.4,2.7-8.9,5.9-13.5,9.7L983.1,959.6z M974.8,951.2L729.5,707.6
	c4.8-4.3,9.8-8.3,14.8-12.2L990,936L974.8,951.2z M721,699.2l-450.2-447l10.3-10.3L735.7,687C730.7,690.9,725.8,695,721,699.2
	L721,699.2z M252.1,270.9l447,450.2c-4.3,4.8-8.4,9.6-12.2,14.7L241.8,281.2L252.1,270.9z M707.6,729.5l243.6,245.3L936,990
	L695.4,744.3C699.2,739.3,703.3,734.3,707.6,729.5L707.6,729.5z M959.6,983.1l86.8,83.5c-3.8,4.6-7,9.1-9.7,13.5l-92.2-81.9
	L959.6,983.1z M1074.8,1055c4.6-3.8,9.1-6.7,13.4-9.2l20.9,23.5l-10.5,10.5L1074.8,1055z M740.5,683.4L285.4,237.6l7.4-7.4
	L753,674.6C748.7,677.3,744.7,680.4,740.5,683.4L740.5,683.4z M237.6,285.4l445.8,455.1c-3,4.1-6.1,8.2-8.8,12.4L230.2,292.8
	L237.6,285.4z M1113.3,1065.1l-19.8-22.3c15.4-7.8,27.4-8.6,32.3-8.5l9.1,9.1L1113.3,1065.1z M280.4,120c2-1.9,4.4-2.3,6.2-2.3
	c3.7,0,7.5,1.7,10.4,4.7c5.1,5.2,6.1,12.8,2.1,16.6c-2,1.9-4.4,2.3-6.2,2.3c-3.7,0-7.5-1.7-10.4-4.7c-2.6-2.7-4.3-6-4.5-9.4
	C277.8,124.3,278.6,121.7,280.4,120L280.4,120z M201.6,32.9c2-1.9,4.4-2.3,6.2-2.3c3.7,0,7.5,1.7,10.4,4.7
	c5.1,5.2,6.1,12.8,2.1,16.7c-2,1.9-4.4,2.3-6.2,2.3c-3.7,0-7.5-1.7-10.4-4.7C198.6,44.4,197.7,36.8,201.6,32.9L201.6,32.9z
	 M52,220.3c-2,2-4.5,2.4-6.3,2.4c-3.6,0-7.4-1.7-10.3-4.6c-5.2-5.1-6.3-12.7-2.4-16.6c2-2,4.5-2.4,6.3-2.4c3.6,0,7.4,1.7,10.3,4.6
	C54.7,208.8,55.8,216.4,52,220.3z M139,299.2c-2,2-4.5,2.4-6.3,2.4c-3.6,0-7.4-1.7-10.3-4.6c-2.7-2.6-4.4-5.9-4.7-9.3
	c-0.3-2.9,0.5-5.5,2.3-7.3c2-2,4.5-2.4,6.3-2.4c3.6,0,7.4,1.7,10.3,4.6C141.8,287.6,142.9,295.3,139,299.2L139,299.2z"/>
</svg>
