<?xml version="1.0" encoding="utf-8"?>
<!-- Generator: Adobe Illustrator 26.2.1, SVG Export Plug-In . SVG Version: 6.00 Build 0)  -->
<svg version="1.1" id="Layer_1" xmlns="http://www.w3.org/2000/svg" xmlns:xlink="http://www.w3.org/1999/xlink" x="0px" y="0px"
	 viewBox="0 0 329.9 1016" style="enable-background:new 0 0 329.9 1016;" xml:space="preserve">
<g>
	<path d="M325.4,689.3c8.4-22.8,3.6-45.6-3.6-67.2c-1.2-4.8-6-10.8-14.4-10.8c-10.8,1.2-14.4,21.6-14.4,25.2
		c-3.6,25.2-16.8,44.4-39.6,54c-18,8.4-34.8-2.4-34.8-21.6c-4.8-154.8-8.4-309.6-14.4-464.4c0-13.2,1.2-26.4,8.4-37.2
		c6-8.4,6-18,2.4-27.6c-6-18-12-36-15.6-54c-2.4-10.8,0-21.6,9.6-30c6-4.8,9.6-13.2,10.8-20.4c3.6-14.4-10.8-31.2-25.2-34.8
		c-13.2-2.4-20.4,3.6-25.2,21.6c-10.8,38.4-20.4,76.8-31.2,115.2c-3.6,10.8-2.4,20.4,4.8,31.2c4.8,7.2,8.4,16.8,8.4,25.2
		c-1.2,73.2-3.6,145.2-6,218.4c-2.4,74.4-3.6,148.8-7.2,223.2c0,8.4-3.6,19.2-9.6,22.8c-9.6,6-20.4,3.6-30-3.6
		c-24-21.6-36-48-31.2-80.4c1.2-12,0-22.8-12-26.4c-13.2-3.6-20.4,3.6-25.2,15.6c-20.4,46.8-24,94.8-4.8,142.8
		c10.8,26.4,18,54,10.8,81.6c-8.4,28.8-16.8,57.6-27.6,85.2c-7.2,19.2-10.8,37.2-7.2,57.6c10.8,50.4,45.6,84,97.2,85.2
		c44.4,0,90,1.2,134.4-1.2c18-1.2,37.2-6,52.8-15.6c39.6-22.8,52.8-64.8,38.4-116.4C303.8,817.7,301.4,754.1,325.4,689.3
		L325.4,689.3z M120.2,773.3h99.6c6,0,12,4.8,12,12c0,6-4.8,12-12,12h-99.6c-6,0-12-4.8-12-12C109.4,778.1,114.2,773.3,120.2,773.3z
		 M120.2,817.7h99.6c6,0,12,4.8,12,12c0,6-4.8,12-12,12h-99.6c-6,0-12-4.8-12-12C109.4,822.5,114.2,817.7,120.2,817.7z M120.2,884.9
		c-6,0-12-4.8-12-12c0-6,4.8-12,12-12h99.6c6,0,12,4.8,12,12c0,6-4.8,12-12,12H120.2z M235.4,960.5c-6,0-12-4.8-12-12
		c0-6,4.8-12,12-12c6,0,12,4.8,12,12C247.4,955.7,242.6,960.5,235.4,960.5z M273.8,926.9c-6,0-12-4.8-12-12c0-6,4.8-12,12-12
		c6,0,12,4.8,12,12C284.6,922.1,279.8,926.9,273.8,926.9z"/>
	<path d="M159.8,22.1l-6,19.2L143,37.7c-2.4-1.2-3.6-2.4-2.4-4.8l3.6-12c1.2-2.4,2.4-3.6,4.8-2.4L159.8,22.1z"/>
	<path d="M150.2,53.3l-6,19.2l-10.8-3.6c-2.4-1.2-3.6-2.4-2.4-4.8l3.6-12c1.2-2.4,2.4-3.6,4.8-2.4L150.2,53.3z"/>
	<path d="M140.6,85.7l-6,19.2l-10.8-3.6c-2.4-1.2-3.6-2.4-2.4-4.8l3.6-12c1.2-2.4,2.4-3.6,4.8-2.4L140.6,85.7z"/>
</g>
</svg>
