<svg xmlns="http://www.w3.org/2000/svg" data-name="Layer 1" viewBox="0 0 194.09 19.33"><path d="M2.68 2.63v16.43H0V.24h4.45l5.61 16.26L15.58.24h4.43v18.82h-2.7V2.55l-5.53 16.51H8.34ZM36.18 14.24h-9l-1.88 4.84h-2.72L30.03.24h3.44l7.38 18.79h-2.79ZM31.7 2.74l-3.55 9.07h7.09ZM43.48.24h8.1c3.49 0 5.91 2.14 5.91 5.1a4.76 4.76 0 0 1-3.09 4.75c2.15 0 2.82.75 2.82 2.63v6.31h-2.74v-5.61c0-1.48-.4-1.88-1.87-1.88h-6.45v7.52h-2.68Zm7.65 8.86a3.32 3.32 0 0 0 3.62-3.36c0-2-1.34-3.09-3.62-3.09h-5V9.1ZM67.15 9.93l-3.27 3.31v5.8H61.2V.24h2.68v9.31L73.14.24h3.49l-7.54 7.7 7.67 11.12h-3.35ZM96.46 14.24h-9l-1.88 4.82h-2.7L90.32.24h3.43l7.39 18.79h-2.8Zm-4.48-11.5-3.54 9.07h7.14ZM103.77.24h3.75l8.73 15.57V.24h2.68v18.82h-3.76l-8.72-15.57v15.57h-2.68ZM129.58 2.41h-.27c-2.33 0-3.89 1.27-3.89 2.93 0 1.45 1 2.31 2.58 2.63l3 .59c3.25.65 5.13 2.36 5.13 5.42 0 3.3-2.79 5.34-6.95 5.34-4.43 0-7.25-2.14-7.38-6.3h2.68c0 2.55 2 3.89 4.81 3.89h.29c2.53 0 3.9-1.26 3.9-2.82s-1-2.41-3-2.82l-3-.61c-3-.62-4.75-2.31-4.75-5.29S125.38 0 129.44 0s6.81 2.28 7 5.9h-2.69c-.17-2.14-1.91-3.49-4.17-3.49ZM140.03.24h13.69v2.44h-11v5.56h9.4v2.41h-9.4v6H154v2.42h-14ZM157.58.24h2.69v16.4h11v2.42h-13.69ZM176.78 2.63v16.43h-2.69V.24h4.49l5.61 16.26L189.66.24h4.43v18.82h-2.69V2.55l-5.53 16.51h-3.43Z"/></svg>