<?xml version="1.0" encoding="utf-8"?>
<!-- Generator: Adobe Illustrator 26.2.1, SVG Export Plug-In . SVG Version: 6.00 Build 0)  -->
<svg version="1.1" id="Layer_1" xmlns="http://www.w3.org/2000/svg" xmlns:xlink="http://www.w3.org/1999/xlink" x="0px" y="0px"
	 viewBox="0 0 638.8 960" style="enable-background:new 0 0 638.8 960;" xml:space="preserve">
<g>
	<path d="M300,150c0,82.8-67.2,150-150,150S0,232.8,0,150S67.2,0,150,0S300,67.2,300,150"/>
	<path d="M273,273.1c-29.3,29.3-67,46.7-107.6,50.3l304.3,224.3c10,7.2,21.5,10.9,33.1,10.9c10.4,0,20.9-3,29.9-8.9
		c0.2,0.4,0.4,0.7,0.7,1.1l55.6,55.6c16.3,16.3,25.3,38.2,25.4,61.6c0,23.3-8.9,45.1-25.2,61.4c-16.3,16.3-37.9,25.2-61,25.2
		c-23.4,0.6-45.5-8.9-62-25.3L343.4,606.4c-20.9-20.9-48.5-32.3-78-32.3c-30.4-0.6-58.2,11.3-79.2,32.4
		c-43.3,43.3-43.3,113.8,0,157.1l193,192.8c2.4,2.4,5.4,3.6,8.5,3.6s6.2-1.2,8.5-3.6c4.7-4.7,4.7-12.4,0-17.2L203.4,746.4
		c-33.8-33.8-33.8-88.9,0-122.8c16.3-16.3,38.2-25.3,61.4-25.3h0.6c23,0,44.6,8.9,61,25.2l122.8,122.8c21,20.9,48.8,32.4,78.5,32.4
		h0.7c29,0,57.5-11.8,78.1-32.3c20.9-20.9,32.4-48.8,32.3-78.6c0-29.8-11.6-57.7-32.5-78.6l-55.6-55.6c-0.4-0.4-0.7-0.5-1.1-0.7
		c12.2-19.1,11.9-44.2-1.9-63.1L323.4,165.5C319.9,204.8,303,243.1,273,273.1L273,273.1z"/>
</g>
</svg>
