<?xml version="1.0" encoding="utf-8"?>
<!-- Generator: Adobe Illustrator 26.2.1, SVG Export Plug-In . SVG Version: 6.00 Build 0)  -->
<svg version="1.1" id="Layer_1" xmlns="http://www.w3.org/2000/svg" xmlns:xlink="http://www.w3.org/1999/xlink" x="0px" y="0px"
	 viewBox="0 0 1200 916.6" style="enable-background:new 0 0 1200 916.6;" xml:space="preserve">
<g>
	<path d="M233.3,916.6h733.3c9.2,0,16.7-7.5,16.7-16.7c0-9.2-7.5-16.7-16.7-16.7H233.3c-9.2,0-16.7,7.5-16.7,16.7
		C216.7,909.2,224.1,916.6,233.3,916.6L233.3,916.6z M550.5,212.8c-27.7,116-92.8,205.5-184.8,218.5c-87,12.3-151-32.8-195.3-113.8
		c-4.4-8.1-14.5-11-22.6-6.6c-8.1,4.4-11,14.5-6.6,22.6c50.3,91.9,126.2,145.4,229.2,130.8c108.9-15.4,182.1-116,212.6-243.8
		c2.1-9-3.4-17.9-12.3-20.1C561.6,198.3,552.6,203.8,550.5,212.8L550.5,212.8z M617.1,220.5c30.5,127.8,103.7,228.4,212.6,243.8
		c102.7,14.6,178.6-38.6,228.9-130.1c4.4-8.1,1.5-18.2-6.6-22.6c-8.1-4.4-18.2-1.5-22.6,6.6c-44.3,80.6-108.2,125.5-195,113.2
		c-92-13-157.2-102.6-184.8-218.5c-2.1-9-11.1-14.5-20.1-12.3C620.5,202.6,615,211.6,617.1,220.5L617.1,220.5z M235.7,783.3
		L119.2,340.8c-2.3-8.9-11.5-14.2-20.4-11.9c-8.9,2.3-14.2,11.5-11.9,20.4l119.8,454.9c1.9,7.3,8.5,12.4,16.1,12.4h755.2
		c7.6,0,14.2-5.1,16.1-12.4l119.4-453.5c2.3-8.9-3-18-11.9-20.4c-8.9-2.3-18,3-20.4,11.9L965.2,783.3L235.7,783.3z"/>
	<path d="M600,0c63.2,0,116.7,52.6,116.7,116.7c0,64.8-51.9,116.7-116.7,116.7s-116.7-51.9-116.7-116.7C483.3,51.9,535.2,0,600,0
		L600,0z M600,33.3c-46.4,0-83.3,37-83.3,83.3c0,46.4,37,83.3,83.3,83.3s83.3-37,83.3-83.3C683.3,71.1,645,33.3,600,33.3L600,33.3z
		 M1100,150c55.2,0,100,43.9,100,100c0,56.8-43.2,100-100,100c-56.1,0-100-44.8-100-100C1000,193.9,1044.8,150,1100,150z
		 M1100,183.3c-36.9,0-66.7,29.1-66.7,66.7c0,36.9,29.1,66.7,66.7,66.7c38.4,0,66.7-28.2,66.7-66.7
		C1166.7,212.5,1136.9,183.3,1100,183.3z M100,150c55.2,0,100,43.9,100,100s-44.8,100-100,100C43.9,350,0,305.2,0,250
		C0,193.9,44.8,150,100,150z M100,183.3c-36.9,0-66.7,29.1-66.7,66.7c0,36.9,29.1,66.7,66.7,66.7c36.9,0,66.7-29.1,66.7-66.7
		C166.7,212.5,136.9,183.3,100,183.3z"/>
</g>
</svg>
