<?xml version="1.0" encoding="utf-8"?>
<!-- Generator: Adobe Illustrator 26.2.1, SVG Export Plug-In . SVG Version: 6.00 Build 0)  -->
<svg version="1.1" id="Layer_1" xmlns="http://www.w3.org/2000/svg" xmlns:xlink="http://www.w3.org/1999/xlink" x="0px" y="0px"
	 viewBox="0 0 905.5 1048.4" style="enable-background:new 0 0 905.5 1048.4;" xml:space="preserve">
<g>
	<path d="M905.4,448.7c0-60.6-11.9-119.3-35.3-174.6c-22.6-53.4-55-101.4-96.1-142.6S684.8,58,631.4,35.4
		C576.1,11.9,517.3,0,456.8,0h-8.3C388,0,329.3,11.9,274,35.3c-53.4,22.6-101.4,55-142.6,96.1S57.8,220.6,35.3,274
		C11.9,329.3,0,388.1,0,448.6v8.3c0,95.4,30.4,187.8,86.2,264.2c-15.6,19.2-24.5,43.3-24.5,69.2v1.4c0,60.5,49.2,109.7,109.7,109.7
		h45l19.9,115.3c3.1,18.2,19.1,31.7,37.6,31.7h357.8c18.6,0,34.4-13.3,37.6-31.7l19.9-115.3h45c60.5,0,109.7-49.2,109.7-109.7v-1.4
		c0-25.8-8.9-50-24.5-69.2c55.8-76.4,86.2-169,86.2-264.2l0-8.2L905.4,448.7z M829.1,457c0,90-32.5,176.8-91.6,244.6
		c-7.8,8.9-10.9,20.9-8.6,32.4c2.3,11.5,9.7,21.5,20.3,26.8c11.3,5.8,18.4,17.2,18.4,29.8v1.4c0,18.4-15,33.4-33.4,33.4H657
		c-18.6,0-34.4,13.3-37.6,31.7l-19.9,115.3H305.9L286,856.9c-3.1-18.2-19.1-31.7-37.6-31.7h-77.2c-18.4,0-33.4-15-33.4-33.4v-1.4
		c0-12.6,7.1-24.1,18.4-29.8c10.6-5.3,18-15.1,20.3-26.8c2.3-11.5-1-23.5-8.6-32.4C108.8,633.8,76.3,547,76.3,457v-8.3
		c0-99.5,38.8-193,109.1-263.3c70.3-70.3,163.8-109.1,263.3-109.1h8.3c99.5,0,193,38.8,263.3,109.1
		c70.3,70.3,109.1,163.8,109.1,263.3v8.3H829.1z"/>
	<path d="M406.5,538.9c0,64.4-52.2,116.5-116.5,116.5s-116.5-52.2-116.5-116.5S225.7,422.4,290,422.4S406.5,474.6,406.5,538.9"/>
	<path d="M731.9,538.9c0,64.4-52.2,116.5-116.5,116.5s-116.5-52.2-116.5-116.5S551,422.4,615.3,422.4S731.9,474.6,731.9,538.9"/>
	<path d="M413.1,690c-17.8-3.5-34.8,8.2-38.3,25.8l-18.1,93.4c-3.5,17.8,8.2,34.8,25.8,38.3c2.2,0.4,4.2,0.6,6.2,0.6
		c15.4,0,29-10.8,32-26.4l18.1-93.4C442.3,710.5,430.8,693.4,413.1,690L413.1,690z"/>
	<path d="M530.5,715.8c-3.5-17.8-20.6-29.3-38.3-25.8c-17.8,3.5-29.3,20.6-25.8,38.3l18.1,93.4c3,15.6,16.7,26.4,32,26.4
		c2,0,4.2-0.2,6.2-0.6c17.8-3.5,29.3-20.6,25.8-38.3L530.5,715.8z"/>
</g>
</svg>
