<?xml version="1.0" encoding="utf-8"?>
<!-- Generator: Adobe Illustrator 26.2.1, SVG Export Plug-In . SVG Version: 6.00 Build 0)  -->
<svg version="1.1" id="Layer_1" xmlns="http://www.w3.org/2000/svg" xmlns:xlink="http://www.w3.org/1999/xlink" x="0px" y="0px"
	 viewBox="0 0 1200.5 925.3" style="enable-background:new 0 0 1200.5 925.3;" xml:space="preserve">
<g>
	<path d="M551.7,692l68.4,68.2l39.9-47.8l-60.6-60.6L551.7,692z"/>
	<path d="M1172.8,83l-55.1-55.3c-29.6-28.7-61.5-42.9-101.2-3.2L347.2,694.4L231.7,579.1l81.4-81.4l23.8-24
		c39.6-39.6,160.1-160.1,279.2-145.9c9.2,1.1,18.3-2,24.9-8.4c3.7-3.5,5.9-8.3,6.2-13.4s-1.2-10.1-4.4-14.1
		C596.1,222.7,478.5,110.5,426,85.6c-4.3-2.2-9.2-3.1-14-2.5c-4.8,0.6-9.3,2.7-13,5.9c-2.7,2.9-4.6,6.4-5.4,10.3
		c-0.8,3.9-0.6,7.9,0.7,11.6c31.9,92.3-12.6,202.5-131.2,327.4L19.3,694.8C6.3,708.6-0.6,727.1,0,746c0.6,19,8.8,36.9,22.6,49.8
		l106.9,106.9c13,13.8,30.9,21.9,49.8,22.6c18.9,0.6,37.4-6.3,51.2-19.2l416.1-415.9l63.4,63.2l-90.8,91.1l48.4,48.4L1176,184.2
		C1215.7,143.9,1201.7,111.7,1172.8,83L1172.8,83z M194.1,847.8c-1.1,1.2-2.7,1.8-4.3,1.8s-3.2-0.7-4.3-1.8L78.6,740.9
		c-3.8-3.8,0-8.4,1.1-9.6l60.9-60.9l115.5,115.5L194.1,847.8z M278.6,762.7L163.3,647.5l45.9-45.9l115.3,115.3L278.6,762.7z
		 M732.7,530.9l-63.4-63.4l35.6-35.6l64.3,63.2L732.7,530.9z M1125.6,138.3L790.9,472.6l-63.4-63.4l335.6-335.6
		c1.1-1.3,2.1-1.9,6.2,2.4l56.2,56.2C1127,134,1127,136.6,1125.6,138.3L1125.6,138.3z"/>
</g>
</svg>
