<?xml version="1.0" encoding="utf-8"?>
<!-- Generator: Adobe Illustrator 26.2.1, SVG Export Plug-In . SVG Version: 6.00 Build 0)  -->
<svg version="1.1" id="Layer_1" xmlns="http://www.w3.org/2000/svg" xmlns:xlink="http://www.w3.org/1999/xlink" x="0px" y="0px"
	 viewBox="0 0 384 1032" style="enable-background:new 0 0 384 1032;" xml:space="preserve">
<path d="M192,0C141.1,0,92.2,20.2,56.2,56.2S0,141.1,0,192v600c0,10.4,3.4,20.5,9.6,28.8l144,192c9.1,12.1,23.3,19.2,38.4,19.2
	s29.3-7.1,38.4-19.2l144-192c6.2-8.3,9.6-18.4,9.6-28.8V192c0-33.7-8.9-66.8-25.7-96c-16.9-29.2-41.1-53.4-70.3-70.3
	C258.8,8.9,225.7,0,192,0L192,0z M192,904l-48-64h96L192,904z M288,744H96V290.4h192V744z M288,194.4H96V192c0-34.3,18.3-66,48-83.1
	c29.7-17.2,66.3-17.2,96,0c29.7,17.1,48,48.8,48,83.1V194.4z"/>
</svg>
