<?xml version="1.0" encoding="utf-8"?>
<!-- Generator: Adobe Illustrator 26.2.1, SVG Export Plug-In . SVG Version: 6.00 Build 0)  -->
<svg version="1.1" id="Layer_1" xmlns="http://www.w3.org/2000/svg" xmlns:xlink="http://www.w3.org/1999/xlink" x="0px" y="0px"
	 viewBox="0 0 774.6 960.1" style="enable-background:new 0 0 774.6 960.1;" xml:space="preserve">
<g>
	<path d="M259.9,196.3l382.9,240.8c2.3,1.5,5,2.2,7.8,2.3c4.9-0.1,9.4-2.6,12-6.8l108-171.7c3-3.1,4.4-7.4,3.8-11.7
		c-0.5-4.3-2.9-8.1-6.5-10.4c-3.6-2.3-8.1-2.9-12.2-1.7c-4.1,1.3-7.4,4.3-9.1,8.3L646.1,404.9L287.6,179.5L388,20.1
		c1.7-4.2,1.4-9-0.9-12.9c-2.3-3.9-6.4-6.5-10.9-7c-4.5-0.5-9,1.2-12.2,4.5L256,176.3c-2.1,3.2-2.9,7.1-2.1,10.8
		C254.6,190.9,256.8,194.2,259.9,196.3L259.9,196.3z"/>
	<path d="M14.5,960.1h649.3c5.2,0,10-2.8,12.6-7.3c2.6-4.5,2.6-10,0-14.5c-2.6-4.5-7.4-7.3-12.6-7.3H14.5c-5.2,0-10,2.8-12.6,7.3
		c-2.6,4.5-2.6,10,0,14.5C4.5,957.4,9.3,960.1,14.5,960.1z"/>
	<path d="M71.3,825.4l85.9,54h0c2.3,1.5,5,2.3,7.7,2.3c4.2,0,8.2-1.8,10.9-4.9c95.3-107.3,189.7-134.5,309.4-169
		c2.5-0.7,4.8-2.1,6.5-4c1.8-1.9,3-4.2,3.5-6.8l54.8-250.4c1.1-5.1-0.6-10.4-4.4-13.9c-3.8-3.5-9.3-4.7-14.2-3.1
		c-5,1.6-8.7,5.7-9.8,10.8l-52.9,242.6c-112.4,32.4-210.5,62.4-306.4,166l-19.4-12l119.2-192c26.7,12.4,57.9,10.4,82.8-5.2
		c25-15.6,40.4-42.7,41-72.1c0.6-29.4-13.6-57.2-37.9-73.8c-24.3-16.6-55.3-19.9-82.5-8.7s-46.9,35.4-52.5,64.3
		c-5.5,28.9,3.9,58.7,25.1,79.1L118.1,822l-21.6-13.7c45.6-128.5,37.4-219,17.2-347.4l208-151c4.3-3,6.6-8.1,6.2-13.3
		c-0.5-5.2-3.7-9.8-8.5-12c-4.8-2.2-10.3-1.7-14.6,1.3l-215,155.3c-2.1,1.5-3.8,3.6-4.8,6c-1,2.4-1.4,5-1.1,7.6
		c23,144,28.8,226.3-18.4,352.7c-1.3,3.2-1.4,6.7-0.3,10C66.2,820.8,68.4,823.6,71.3,825.4L71.3,825.4z M298.6,506.4
		c15.4,0,30.2,6.1,41.1,17c10.9,10.9,17,25.7,17,41.1c0,15.4-6.1,30.2-17,41.1c-10.9,10.9-25.7,17-41.1,17c-15.4,0-30.2-6.1-41.1-17
		c-10.9-10.9-17-25.7-17-41.1c0-15.4,6.2-30.1,17-41C268.4,512.6,283.2,506.4,298.6,506.4z"/>
</g>
</svg>
